<?xml version="1.0" encoding="utf-8"?>
<!-- Generator: Adobe Illustrator 27.5.0, SVG Export Plug-In . SVG Version: 6.00 Build 0)  -->
<svg version="1.1" id="camping" xmlns="http://www.w3.org/2000/svg" xmlns:xlink="http://www.w3.org/1999/xlink" x="0px" y="0px"
	 viewBox="0 0 32 32" style="enable-background:new 0 0 32 32;" xml:space="preserve">
<style type="text/css">
	.st0{fill:#FFFFFF;}
</style>
<path class="st0" d="M30.9,25.5l-3.6-7.3c1.1-0.7,1.7-2,1.7-3.3V9c0-2.2-1.8-4-4-4s-4,1.8-4,4v2H9c-0.4,0-0.7,0.2-0.9,0.6l-7,14
	c-0.2,0.5-0.1,1.1,0.4,1.3C1.7,27,1.8,27,2,27h28c0.6,0,1-0.5,1-1C31,25.8,31,25.7,30.9,25.5z M23,9c0-1.1,0.9-2,2-2s2,0.9,2,2v6
	c0,1.1-0.9,2-2,2s-2-0.9-2-2V9z M24,18.9V25h-7.4l-6-12H21v2C21,16.8,22.2,18.4,24,18.9z M8,16.2V25H3.6L8,16.2z M10,25v-8.8
	l4.4,8.8H10z M26,25v-4.8l2.4,4.8H26z"/>
</svg>
