<svg xmlns="http://www.w3.org/2000/svg" viewBox="0 0 50 50" id="digital-customer" fill="#888"><path d="M23 1h-2C11.075 1 3 9.075 3 19v30h20v-6h18V32h7.741l-7.743-13.273C40.851 8.927 32.834 1 23 1zm16 29v11H21v6H5V19c0-8.822 7.178-16 16-16h2c8.822 0 16 7.178 16 16v.271L45.259 30H39z"></path><path d="M22 5C14.28 5 8 11.28 8 19s6.28 14 14 14 14-6.28 14-14S29.72 5 22 5zm9.727 7H28V8.623A12.095 12.095 0 0 1 31.727 12zM26 30.3V20h1.184A2.996 2.996 0 0 0 30 22c1.654 0 3-1.346 3-3s-1.346-3-3-3a2.996 2.996 0 0 0-2.816 2H24v12.819c-.652.11-1.317.181-2 .181v-9h-3.184A2.996 2.996 0 0 0 16 20c-1.654 0-3 1.346-3 3s1.346 3 3 3a2.996 2.996 0 0 0 2.816-2H20v6.819C14.334 29.863 10 24.934 10 19c0-3.032 1.139-5.796 3-7.911V16h4.184A2.996 2.996 0 0 0 20 18c1.654 0 3-1.346 3-3s-1.346-3-3-3a2.996 2.996 0 0 0-2.816 2H15V9.273A11.919 11.919 0 0 1 22 7c1.404 0 2.747.255 4 .7V14h6.895A11.916 11.916 0 0 1 34 19c0 5.213-3.347 9.647-8 11.3zM29 19a1 1 0 1 1 2 0 1 1 0 0 1-2 0zm-12 4a1 1 0 1 1-2 0 1 1 0 0 1 2 0zm2-8a1 1 0 1 1 2 0 1 1 0 0 1-2 0z"></path></svg>