<?xml version="1.0" encoding="utf-8"?>
<!-- Generator: Adobe Illustrator 27.5.0, SVG Export Plug-In . SVG Version: 6.00 Build 0)  -->
<svg version="1.1" id="growth-arrow" xmlns="http://www.w3.org/2000/svg" xmlns:xlink="http://www.w3.org/1999/xlink" x="0px"
	 y="0px" viewBox="0 0 24 24" style="enable-background:new 0 0 24 24;" xml:space="preserve">
<style type="text/css">
	.st0{fill:#FFFFFF;}
</style>
<path class="st0" d="M21.9,6.6c-0.1-0.2-0.3-0.4-0.5-0.5C21.3,6,21.1,6,21,6h-5c-0.6,0-1,0.4-1,1s0.4,1,1,1h2.6L13,13.6l-3.3-3.3
	c-0.4-0.4-1-0.4-1.4,0c0,0,0,0,0,0l-6,6c-0.4,0.4-0.4,1,0,1.4c0,0,0,0,0,0c0.4,0.4,1,0.4,1.4,0c0,0,0,0,0,0L9,12.4l3.3,3.3
	c0.4,0.4,1,0.4,1.4,0c0,0,0,0,0,0L20,9.4V12c0,0.6,0.4,1,1,1s1-0.4,1-1V7C22,6.9,22,6.7,21.9,6.6z"/>
</svg>
