<?xml version="1.0" encoding="utf-8"?>
<!-- Generator: Adobe Illustrator 24.3.0, SVG Export Plug-In . SVG Version: 6.00 Build 0)  -->
<svg version="1.1" id="レイヤー_1" xmlns="http://www.w3.org/2000/svg" xmlns:xlink="http://www.w3.org/1999/xlink" x="0px"
	 y="0px" viewBox="0 0 800 800" style="enable-background:new 0 0 800 800;" xml:space="preserve">
<style type="text/css">
	.st0{fill:#FEFEFE;}
</style>
<path class="st0" d="M790.5,745L623.2,577.7c50.8-61.1,81.4-139.5,81.4-224.9c0-194.3-158-352.3-352.3-352.3
	C158,0.5,0,158.5,0,352.8C0,547,158,705.1,352.3,705.1c85.4,0,163.9-30.6,224.9-81.4l167.2,167.2c6.4,6.4,14.7,9.5,23,9.5
	c8.3,0,16.6-3.2,23-9.5C803.2,778.2,803.2,757.6,790.5,745z M65,352.8C65,194.4,193.9,65.5,352.3,65.5s287.3,128.9,287.3,287.3
	S510.7,640,352.3,640S65,511.2,65,352.8z"/>
</svg>
