<?xml version="1.0" encoding="utf-8"?>
<!-- Generator: Adobe Illustrator 24.0.1, SVG Export Plug-In . SVG Version: 6.00 Build 0)  -->
<svg version="1.1" id="レイヤー_1" xmlns="http://www.w3.org/2000/svg" xmlns:xlink="http://www.w3.org/1999/xlink" x="0px"
	 y="0px" viewBox="0 0 128 128" style="enable-background:new 0 0 128 128;" xml:space="preserve">
<style type="text/css">
	.st0{fill:#0a0304;}
</style>
<g>
	<g>
		<g>
			<polygon class="st0" points="84.7,64.5 127.9,91.7 127.9,36 			"/>
		</g>
	</g>
	<g>
		<g>
			<polygon class="st0" points="-0.1,36 -0.1,91.7 43,64.5 			"/>
		</g>
	</g>
	<g>
		<g>
			<path class="st0" d="M119.9,19.8H7.9c-4,0-7.2,3-7.8,6.8l63.8,42l63.8-42C127,22.8,123.8,19.8,119.9,19.8z"/>
		</g>
	</g>
	<g>
		<g>
			<path class="st0" d="M77.4,69.3l-11.3,7.5c-0.7,0.4-1.4,0.7-2.2,0.7s-1.5-0.2-2.2-0.7l-11.3-7.5L0.1,101.1
				c0.6,3.8,3.8,6.8,7.7,6.8h112c4,0,7.1-3,7.7-6.8L77.4,69.3z"/>
		</g>
	</g>
</g>
</svg>
