<svg xmlns="http://www.w3.org/2000/svg" enable-background="new 0 0 512 512" viewBox="0 0 512 512" id="positive-interaction" fill="#4bacc6"><path d="M329.898 345.165c0-17.029-13.733-31.485-31.488-31.485h-71.946c-3.443 0-5.854-3.592-4.328-6.742 7.465-15.5 19-30.618 35.254-46.227.434-.414.816-.875 1.145-1.375 12.281-18.676 11.716-43.122-1.922-61.203-6.859-9.047-20.211-9.357-27.406-.742l-30.945 36.781c-8.188 9.734-17.668 17.719-28.183 23.75-29.234 16.836-43.797 38.414-50.883 53.579-1.95 4.227-6.356 6.961-11.23 6.961h-11.35c-3.128-12.691-14.528-22.172-28.173-22.172H8c-4.418 0-8 3.578-8 8v192.523c0 4.421 3.582 8 8 8h60.442c13.644 0 25.043-9.478 28.172-22.172 2.631.154 13.865-.952 28.758 3.656l42.68 13.141c9.375 2.898 19.114 4.367 28.945 4.367h81.301c12.965 0 24.106-8.867 26.492-21.109 1.214-6.3.053-12.641-3.018-18.057 10.338-4.671 17.581-15.048 17.581-27.131 0-6.654-2.274-12.739-5.979-17.698 9.791-5.357 16.525-15.65 16.525-27.599 0-9.345-4.174-17.66-10.662-23.432C326.182 362.664 329.898 354.159 329.898 345.165zM81.539 475.711c0 7.227-5.875 13.101-13.098 13.101H16V312.289h52.441c7.223 0 13.098 5.875 13.098 13.094V475.711zM247.703 360.727c-4.418 0-8 3.578-8 8 0 4.421 3.582 8 8 8h50.708c8.539 0 15.489 6.945 15.489 15.484 0 8.578-6.949 15.563-15.489 15.563h-50.708c-4.418 0-8 3.578-8 8 0 4.421 3.582 8 8 8h41.918c7.57 0 13.73 6.164 13.73 13.734 0 7.61-6.16 13.797-13.73 13.797h-41.918c-4.418 0-8 3.578-8 8 0 4.421 3.582 8 8 8h31.367c6.182 0 11.318 5.579 10.012 12.344-.907 4.648-5.543 8.157-10.785 8.157h-81.301c-8.23 0-16.379-1.227-24.227-3.656l-42.684-13.141c-16.617-5.137-30.998-4.269-32.546-4.367V334.461h10.426c11.097 0 21.211-6.383 25.746-16.227 6.089-13.047 18.734-31.695 44.336-46.445 12.137-6.954 23.059-16.141 32.457-27.32l30.961-36.797c.627-.759 1.754-.721 2.382.109 9.321 12.36 9.911 29.049 1.781 42.047-17.301 16.726-29.703 33.14-37.903 50.148-6.657 13.783 3.518 29.703 18.738 29.703h71.946c8.688 0 15.489 7.094 15.489 15.484 0 8.446-6.907 15.563-15.489 15.563h-50.705V360.727zM478.649 7.188H342.07c-35.988 0-65.27 29.281-65.27 65.274v127.493c0 18.195 24.162 24.683 33.242 8.875l23.211-40.352H446.73c35.988 0 65.27-29.281 65.27-65.274V40.539C512 22.149 497.039 7.188 478.649 7.188zM496 103.204c0 27.171-22.101 49.274-49.269 49.274H328.625c-2.864 0-5.508 1.532-6.934 4.008l-25.519 44.368c-.948 1.661-3.371.951-3.371-.898V72.461c0-27.171 22.101-49.274 49.269-49.274h136.578c9.567 0 17.352 7.781 17.352 17.352L496 103.204 496 103.204z"></path><path d="M424.054,65.641l-10.488-1.633l-4.613-9.351c-5.954-12.077-23.145-12.038-29.094-0.024l-4.817,9.5l-10.297,1.508
				c-13.314,1.943-18.605,18.305-8.969,27.687l7.512,7.445l-1.762,10.297c-2.285,13.235,11.645,23.38,23.559,17.094l9.434-4.852
				l9.187,4.844c11.926,6.303,25.827-3.834,23.578-17.055l-1.75-10.328l0.067-0.203l7.434-7.258
				C442.661,83.948,437.354,67.581,424.054,65.641z M414.433,89.109c-3.816,3.719-5.566,9.078-4.672,14.335l1.418,10.563
				l-9.18-4.844c-4.812-2.549-10.507-2.467-15.156-0.016l-9.547,4.625l1.766-10.297c0.903-5.273-0.852-10.648-4.684-14.375
				l-7.316-7.633l10.297-1.508c5.27-0.765,9.832-4.078,12.195-8.851l5.051-9.375l4.606,9.344c2.359,4.79,6.925,8.117,12.215,8.882
				l10.441,1.899L414.433,89.109z"></path></svg>