<?xml version="1.0" encoding="utf-8"?>
<!-- Generator: Adobe Illustrator 26.3.1, SVG Export Plug-In . SVG Version: 6.00 Build 0)  -->
<svg version="1.1" id="レイヤー_1" xmlns="http://www.w3.org/2000/svg" xmlns:xlink="http://www.w3.org/1999/xlink" x="0px"
	 y="0px" viewBox="0 0 31 31" style="enable-background:new 0 0 31 31;" xml:space="preserve">
<style type="text/css">
	.st0{fill:#E5E5E5;}
</style>
<g>
	<path class="st0" d="M6.1,27.4c-4,0-6.1-3.4-6.1-6.8c0-8,7.6-14.9,10-17l2,2.2c-2.6,2.3-5.8,5-5.8,7.8c0,1,0.4,1.7,1.3,2
		c4.1,1.2,4.6,4.7,4.6,5.9C12.1,24.4,9.7,27.4,6.1,27.4z M25,27.4c-4,0-6-3.4-6-6.8c0-8,7.2-14.6,9.8-17l2,2.2
		c-2.6,2.4-5.6,5-5.6,7.8c0,1.7,0.7,1.9,1.2,2c4,1.1,4.6,4.4,4.6,5.9C31,24.5,28.4,27.4,25,27.4z"/>
</g>
</svg>
