<?xml version="1.0" encoding="utf-8"?>
<!-- Generator: Adobe Illustrator 27.5.0, SVG Export Plug-In . SVG Version: 6.00 Build 0)  -->
<svg version="1.1" id="search-area" xmlns="http://www.w3.org/2000/svg" xmlns:xlink="http://www.w3.org/1999/xlink" x="0px"
	 y="0px" viewBox="0 0 24 24" style="enable-background:new 0 0 24 24;" xml:space="preserve">
<style type="text/css">
	.st0{fill:#FFFFFF;}
</style>
<path class="st0" d="M16,17c0.3,0,0.5-0.1,0.7-0.3c0.4-0.4,0.4-1,0-1.4l-2-2c0.5-0.7,0.7-1.6,0.7-2.5c0-2.6-2.1-4.7-4.7-4.7
	C8.1,6,6,8.1,6,10.7s2.1,4.7,4.7,4.7c0.9,0,1.8-0.3,2.5-0.8l2,2C15.5,16.9,15.7,17,16,17z M10.7,13.4c-1.5,0-2.7-1.2-2.7-2.7
	S9.3,8,10.7,8s2.7,1.2,2.7,2.7S12.2,13.4,10.7,13.4z M17,3h-1c-0.6,0-1,0.4-1,1s0.4,1,1,1h1c1.1,0,2,0.9,2,2v1.1c0,0.6,0.4,1,1,1
	s1-0.4,1-1V7C21,4.8,19.2,3,17,3z M20,15c-0.6,0-1,0.4-1,1v1c0,1.1-0.9,2-2,2h-1c-0.6,0-1,0.4-1,1s0.4,1,1,1h1c2.2,0,4-1.8,4-4v-1
	C21,15.4,20.6,15,20,15z M8,19H7c-1.1,0-2-0.9-2-2v-1c0-0.6-0.4-1-1-1s-1,0.4-1,1v1c0,2.2,1.8,4,4,4h1c0.6,0,1-0.4,1-1S8.6,19,8,19z
	 M4,9c0.6,0,1-0.4,1-1V7c0-1.1,0.9-2,2-2h1c0.6,0,1-0.4,1-1S8.6,3,8,3H7C4.8,3,3,4.8,3,7v1C3,8.5,3.4,9,4,9z"/>
</svg>
