<?xml version="1.0" encoding="utf-8"?>
<!-- Generator: Adobe Illustrator 26.5.0, SVG Export Plug-In . SVG Version: 6.00 Build 0)  -->
<svg version="1.1" id="レイヤー_1" xmlns="http://www.w3.org/2000/svg" xmlns:xlink="http://www.w3.org/1999/xlink" x="0px"
	 y="0px" viewBox="0 0 11.2 11.2" style="enable-background:new 0 0 11.2 11.2;" xml:space="preserve">
<style type="text/css">
	.st0{fill:#FFDD67;}
	.st1{fill:#EBA352;}
	.st2{fill:#3B946F;}
	.st3{fill:#47B892;}
</style>
<g>
	<g>
		<path class="st0" d="M10.2,5.9L10,2.5l-1.6,1C7.6,3.3,7.4,3.3,6.8,3C6.5,2.9,6,3,5.8,3.1C5.5,2.7,3.3,3.3,3,3.4
			C2.4,3.2,1.4,2.4,1.4,2.4L1.1,6.3l0.4,0.1c0,0.1,0.1,0.5,0.1,0.5C1.2,7.4,1.7,8,2.2,7.8C2,8.3,2.5,8.8,3,8.4
			C2.9,8.9,3.4,9.3,3.8,8.9c-0.2,0.6,0.5,1,0.9,0.5c0.3,0.2,0.5,0.3,0.8,0.4v0c0.4,0.2,0.8-0.2,0.8-0.7c0.5,0.5,1.1,0,1-0.6
			C7.7,9,8.3,8.4,7.9,7.8C8.5,8.1,9,7.3,8.5,6.7L10.2,5.9z"/>
		<path class="st1" d="M2.2,6.4C2.5,6.6,2.7,7,2.4,7.4L2.3,7.5C2.1,7.7,2,7.8,1.8,7.8c0.1,0.1,0.2,0.1,0.4,0c0-0.1,0.1-0.1,0.1-0.2
			l0.1-0.2c0.1-0.1,0.2-0.2,0.2-0.2C2.8,6.8,2.6,6.5,2.2,6.4z"/>
		<path class="st1" d="M4.4,8.3c0.3,0.1,0.5,0.5,0.3,0.9L4.6,9.3C4.5,9.6,4.3,9.6,4.1,9.7c0.2,0.1,0.4,0,0.6-0.3l0.1-0.2
			C5.1,8.7,4.8,8.2,4.4,8.3z"/>
		<path class="st1" d="M3.1,8.1l0.3-0.5c0-0.3-0.2-0.5-0.5-0.5C3.2,7.3,3.3,7.7,3.1,8.1L2.9,8.3C2.8,8.4,2.6,8.5,2.5,8.5
			C2.6,8.6,2.8,8.6,3,8.4C3,8.3,3,8.2,3.1,8.1z"/>
		<path class="st1" d="M3.9,7.3c0.3,0.1,0.5,0.5,0.3,0.9L3.7,8.8C3.6,9,3.5,9,3.3,9c0.2,0.1,0.4,0,0.6-0.3l0.4-0.6
			C4.6,7.7,4.2,7.3,3.9,7.3z"/>
		<path class="st1" d="M6.4,7.8c0,0,0.2,0,0.3,0C6.4,7.4,6,7.7,5.7,7.5C5.9,7.8,6.3,7.8,6.4,7.8l0.4,0.6c0.4,0.5,0.1,1-0.3,1.1
			c0.4,0.1,0.8-0.3,0.7-0.8C7.1,8.6,6.4,7.8,6.4,7.8z"/>
		<path class="st1" d="M6.8,6.7c0,0,0.3-0.1,0.5-0.1c-0.3-0.2-0.7,0-1-0.2C6.5,6.7,6.7,6.7,6.8,6.7l0.8,1c0.4,0.4,0.1,1-0.3,1.1
			c0.5,0.1,0.9-0.4,0.6-0.9C7.8,7.7,6.8,6.7,6.8,6.7z"/>
		<path class="st1" d="M6.2,8.8C5.9,8.6,5.5,8.8,5.4,8.7c0.1,0.3,0.4,0.2,0.5,0.2c0.3,0.5,0,1-0.4,1c0.4,0.2,0.8-0.2,0.8-0.7
			c0,0-0.3-0.4-0.3-0.4C5.9,8.9,6.1,8.8,6.2,8.8z"/>
		<path class="st1" d="M10,5.6c0,0-0.3,0.6-1.6,1C8.2,6.4,7.9,6,7.5,5.6c0.3-0.1,0.4-0.3,0.6-0.3c-0.1-0.1-0.3,0-0.5,0
			C7.2,5.5,6.3,4.9,6.3,4.9L5.6,5C5.1,5.5,4,5.7,3.9,5c0-0.5,1.1-0.9,1.5-1.2c0.4-0.4,0.8-1,1.6-0.6c0.6,0.3,0.8,0.3,1.7,0.4
			c0.3,0,0.5,0.2,0.7,0.5C9.2,3.7,8.9,3.5,8.6,3.4l1.3-0.6l0-0.3L8.4,3.4C7.7,3.3,7.4,3.3,6.8,3C6.5,2.8,6.2,2.9,5.9,3
			C5.5,2.7,5.2,2.8,5,2.8C4.5,3,3.6,3,2.9,3.3c0.1,0,0.3,0.1,0.4,0.1l0,0C4,3.2,4.8,3.2,5.1,3.1c0.1,0,0.3,0,0.6,0.1
			C5.5,3.3,5.4,3.5,5.3,3.6C4.9,3.9,3.8,4.4,3.9,5c0,0.3,0.4,1.1,1.8,0.2l0.6-0.1c0,0,1.1,0.5,2.1,1.7c0.4,0.4,0.1,0.9-0.2,1
			C8.6,8,9.1,7.3,8.6,6.8l1.2-0.6L10,5.6z"/>
		<path class="st2" d="M9.6,2.7l0.6,3.2L9.7,6.1C9.5,5.4,9.1,3.7,9.2,2.9L9.6,2.7z"/>
		<path class="st1" d="M1.7,6.8C1.6,6.5,1.6,6.2,1.6,6.2L1.1,5.9l0,0.4l0.4,0.1C1.5,6.6,1.6,6.7,1.7,6.8L1.7,6.8z"/>
		<path class="st2" d="M0.8,6.2l1-3.5L2.3,3c0.1,0.5-0.8,2.9-1.1,3.3L0.8,6.2z"/>
		<path class="st3" d="M9.6,2.7C9.5,2.8,10,6,10.2,5.9c0.7-0.3,1-0.4,1-0.4V1.6C11.2,1.6,10.8,1.9,9.6,2.7z"/>
		<path class="st3" d="M0,1.3v4.8c0,0,0.3,0,0.8,0.1C1,6.3,1.9,2.8,1.8,2.7C1.2,2.3,0,1.3,0,1.3z"/>
	</g>
</g>
</svg>
