<?xml version="1.0" encoding="utf-8"?>
<!-- Generator: Adobe Illustrator 27.5.0, SVG Export Plug-In . SVG Version: 6.00 Build 0)  -->
<svg version="1.1" id="smile" xmlns="http://www.w3.org/2000/svg" xmlns:xlink="http://www.w3.org/1999/xlink" x="0px" y="0px"
	 viewBox="0 0 32 32" style="enable-background:new 0 0 32 32;" xml:space="preserve">
<style type="text/css">
	.st0{fill:#ffffff;}
</style>
<g>
	<path class="st0" d="M23,16h-2c-0.6,0-1,0.4-1,1c0,0.5,0.4,0.9,0.9,1c-0.5,2.7-3.2,4.5-5.9,3.9c-2-0.4-3.5-1.9-3.9-3.9
		c0.5-0.1,0.9-0.5,0.9-1c0-0.6-0.4-1-1-1H9c-0.6,0-1,0.4-1,1s0.4,1,1,1h0.1c0.6,3.8,4.2,6.4,8,5.9c3-0.5,5.4-2.8,5.9-5.9H23
		c0.6,0,1-0.4,1-1S23.6,16,23,16z"/>
	<circle class="st0" cx="12" cy="11" r="2"/>
	<circle class="st0" cx="20" cy="11" r="2"/>
	<path class="st0" d="M16,3C8.8,3,3,8.8,3,16s5.8,13,13,13s13-5.8,13-13S23.2,3,16,3z M16,27C9.9,27,5,22.1,5,16S9.9,5,16,5
		s11,4.9,11,11S22.1,27,16,27z"/>
</g>
</svg>
