<?xml version="1.0" encoding="UTF-8"?> <svg xmlns="http://www.w3.org/2000/svg" id="_レイヤー_1" viewBox="0 0 96 96"><defs><style>.cls-1{fill:#202050;stroke-width:0px;}</style></defs><path class="cls-1" d="m76.92,20.03c.39.33.04-.04.04-.04l-11.29-11.29c-10.42-10.42-27.36-10.42-37.78,0L3.03,33.56c-1.17,1.17-1.17,3.06,0,4.24,8.05,8.05,21.09,8.05,29.14,0l16.72-16.72c7.68-7.68,19.92-8.03,28.02-1.05Z"></path><path class="cls-1" d="m92.76,35.79l-12.48-12.48c-8.05-8.05-21.1-8.05-29.15,0h0c-1.17,1.17-1.17,3.06,0,4.23l.08.08,2.55,2.55,9.86,9.86c4.02,4.02,9.3,6.04,14.57,6.04s10.55-2.01,14.57-6.04c1.17-1.17,1.17-3.06,0-4.24Z"></path><path class="cls-1" d="m19.08,75.97c-.39-.33-.04.04-.04.04l11.29,11.29c10.42,10.42,27.36,10.42,37.78,0l24.86-24.86c1.17-1.17,1.17-3.06,0-4.24-8.05-8.05-21.09-8.05-29.14,0l-16.72,16.72c-7.68,7.68-19.92,8.03-28.02,1.05Z"></path><path class="cls-1" d="m3.24,60.21l12.48,12.48c8.05,8.05,21.1,8.05,29.15,0h0c1.17-1.17,1.17-3.06,0-4.23l-.08-.08-2.55-2.55-9.86-9.86c-4.02-4.02-9.3-6.04-14.57-6.04s-10.55,2.01-14.57,6.04c-1.17,1.17-1.17,3.06,0,4.24Z"></path></svg> 