<?xml version="1.0" encoding="UTF-8"?> <svg xmlns="http://www.w3.org/2000/svg" id="_レイヤー_1" viewBox="0 0 96 96"><defs><style>.cls-1{fill:#202050;stroke-width:0px;}</style></defs><path class="cls-1" d="m52.43,11.18C52.43,5.01,47.43,0,41.25,0h0C40.07,0,38.93.18,37.86.53c-2.09.64-3.82,1.84-5.15,3.45-.85,1.01-1.53,2.17-1.98,3.43-.48,1.24-.79,2.6-.93,4.05-2.15,22.87,18.2,36.55,18.2,36.55,0,0-5.48-12.53,2.46-30.48.67-1.52,1.97-4.29,1.97-6.34Z"></path><path class="cls-1" d="m18.33,25.75c-5.35-3.09-12.18-1.26-15.27,4.09h0c-.59,1.02-1,2.1-1.24,3.2-.49,2.13-.32,4.23.41,6.19.45,1.24,1.11,2.41,1.98,3.43.84,1.04,1.86,1.99,3.04,2.83,18.73,13.3,40.75,2.51,40.75,2.51,0,0-13.59-1.52-25.16-17.37-.98-1.34-2.72-3.85-4.51-4.88Z"></path><path class="cls-1" d="m13.9,62.57c-5.35,3.09-7.18,9.92-4.09,15.27h0c.59,1.02,1.32,1.92,2.15,2.67,1.6,1.49,3.5,2.39,5.56,2.74,1.3.23,2.64.24,3.96,0,1.32-.21,2.65-.62,3.97-1.22,20.88-9.57,22.55-34.04,22.55-34.04,0,0-8.11,11.01-27.62,13.11-1.65.18-4.7.43-6.48,1.46Z"></path><path class="cls-1" d="m43.57,84.82c0,6.17,5.01,11.18,11.18,11.18h0c1.18,0,2.32-.18,3.39-.53,2.09-.64,3.82-1.84,5.15-3.45.85-1.01,1.53-2.17,1.98-3.43.48-1.24.79-2.6.93-4.05,2.15-22.87-18.2-36.55-18.2-36.55,0,0,5.48,12.53-2.46,30.48-.67,1.52-1.97,4.29-1.97,6.34Z"></path><path class="cls-1" d="m77.67,70.25c5.35,3.09,12.18,1.26,15.27-4.09h0c.59-1.02,1-2.1,1.24-3.2.49-2.13.32-4.23-.41-6.19-.45-1.24-1.11-2.41-1.98-3.43-.84-1.04-1.86-1.99-3.04-2.83-18.73-13.3-40.75-2.51-40.75-2.51,0,0,13.59,1.52,25.16,17.37.98,1.34,2.72,3.85,4.51,4.88Z"></path><path class="cls-1" d="m82.1,33.43c5.35-3.09,7.18-9.92,4.09-15.27h0c-.59-1.02-1.32-1.92-2.15-2.67-1.6-1.49-3.5-2.39-5.56-2.74-1.3-.23-2.64-.24-3.96,0-1.32.21-2.65.62-3.97,1.22-20.88,9.57-22.55,34.04-22.55,34.04,0,0,8.11-11.01,27.62-13.11,1.65-.18,4.7-.43,6.48-1.46Z"></path></svg> 