<?xml version="1.0" encoding="utf-8"?>
<!-- Generator: Adobe Illustrator 28.0.0, SVG Export Plug-In . SVG Version: 6.00 Build 0)  -->
<svg version="1.1" id="レイヤー_1" xmlns="http://www.w3.org/2000/svg" xmlns:xlink="http://www.w3.org/1999/xlink" x="0px"
	 y="0px" viewBox="0 0 390.1 45.1" style="enable-background:new 0 0 390.1 45.1;" xml:space="preserve">
<style type="text/css">
	.st0{fill:url(#SVGID_1_);}
	.st1{fill:url(#SVGID_00000101069478769389262010000003492933649083685763_);}
	.st2{fill:url(#SVGID_00000102542540279741233520000015779136406186355080_);}
	.st3{fill:url(#SVGID_00000013912550403247617990000010285432894499916172_);}
	.st4{fill:url(#SVGID_00000180349007859264184710000009886271798483460023_);}
	.st5{fill:url(#SVGID_00000170969050313814530530000002378568630474654352_);}
	.st6{fill:url(#SVGID_00000046304038828338798750000005915283380506207883_);}
	.st7{fill:url(#SVGID_00000094593787737173844900000018271316984227911556_);}
	.st8{fill:url(#SVGID_00000005955236654803445940000008087420356306141106_);}
	.st9{fill:url(#SVGID_00000084490376236404537220000007620264690152287133_);}
	.st10{fill:url(#SVGID_00000012430307712130459610000000061765641682153912_);}
	.st11{fill:url(#SVGID_00000095311416831650624430000001696917109758130560_);}
	.st12{fill:url(#SVGID_00000101082921647478103790000007019691648067521670_);}
	.st13{fill:url(#SVGID_00000049926943516032822970000003597041055017084073_);}
	.st14{fill:url(#SVGID_00000149343696689988259800000012775226919981689528_);}
</style>
<g>
	<g>
		<linearGradient id="SVGID_1_" gradientUnits="userSpaceOnUse" x1="114.1959" y1="18.9343" x2="114.1959" y2="43.3706">
			<stop  offset="0" style="stop-color:#0003FF"/>
			<stop  offset="1" style="stop-color:#0100A7"/>
		</linearGradient>
		<polygon class="st0" points="109.8,19.9 103,19.9 103,44.2 109.8,44.2 109.8,32.3 117.2,44.2 125.4,44.2 117,31.1 125,19.9 
			116.7,19.9 109.8,30.3 		"/>
		
			<linearGradient id="SVGID_00000046333334656097573290000017473406942830679690_" gradientUnits="userSpaceOnUse" x1="130.2314" y1="18.9343" x2="130.2314" y2="43.3706">
			<stop  offset="0" style="stop-color:#0003FF"/>
			<stop  offset="1" style="stop-color:#0100A7"/>
		</linearGradient>
		
			<rect x="126.8" y="19.9" style="fill:url(#SVGID_00000046333334656097573290000017473406942830679690_);" width="6.9" height="24.2"/>
		
			<linearGradient id="SVGID_00000073691293006267892630000005650746600606109623_" gradientUnits="userSpaceOnUse" x1="149.2469" y1="18.9343" x2="149.2469" y2="43.3706">
			<stop  offset="0" style="stop-color:#0003FF"/>
			<stop  offset="1" style="stop-color:#0100A7"/>
		</linearGradient>
		<polygon style="fill:url(#SVGID_00000073691293006267892630000005650746600606109623_);" points="154.3,19.9 154.3,33.7 
			144.2,19.9 137.8,19.9 137.8,44.2 144.2,44.2 144.2,30.1 154.3,44.2 160.7,44.2 160.7,19.9 		"/>
		<g>
			
				<linearGradient id="SVGID_00000164473223225655532120000008932814315891289235_" gradientUnits="userSpaceOnUse" x1="176.2451" y1="18.9343" x2="176.2451" y2="43.3706">
				<stop  offset="0" style="stop-color:#0003FF"/>
				<stop  offset="1" style="stop-color:#0100A7"/>
			</linearGradient>
			<path style="fill:url(#SVGID_00000164473223225655532120000008932814315891289235_);" d="M176.2,19.4c-7.1,0-12.8,5.7-12.8,12.7
				s5.7,12.7,12.8,12.7c7.1,0,12.8-5.7,12.8-12.7S183.3,19.4,176.2,19.4z M176.2,38.4c-3.2,0-5.8-2.9-5.8-6.4c0-3.5,2.6-6.4,5.8-6.4
				c3.2,0,5.8,2.9,5.8,6.4C182,35.5,179.4,38.4,176.2,38.4z"/>
		</g>
		
			<linearGradient id="SVGID_00000103961740075709639310000004472211696266640549_" gradientUnits="userSpaceOnUse" x1="241.9648" y1="18.9343" x2="241.9648" y2="43.3706">
			<stop  offset="0" style="stop-color:#0003FF"/>
			<stop  offset="1" style="stop-color:#0100A7"/>
		</linearGradient>
		
			<rect x="238.5" y="19.9" style="fill:url(#SVGID_00000103961740075709639310000004472211696266640549_);" width="6.9" height="24.2"/>
		
			<linearGradient id="SVGID_00000014605314932267954870000008077537681372595093_" gradientUnits="userSpaceOnUse" x1="223.6494" y1="18.9343" x2="223.6494" y2="43.3706">
			<stop  offset="0" style="stop-color:#0003FF"/>
			<stop  offset="1" style="stop-color:#0100A7"/>
		</linearGradient>
		<polygon style="fill:url(#SVGID_00000014605314932267954870000008077537681372595093_);" points="228,19.9 228,29 219.3,29 
			219.3,19.9 212.4,19.9 212.4,44.2 219.3,44.2 219.3,34.5 228,34.5 228,44.2 234.9,44.2 234.9,19.9 		"/>
		
			<linearGradient id="SVGID_00000169520191866147560090000011404638498540011925_" gradientUnits="userSpaceOnUse" x1="258.4326" y1="18.9343" x2="258.4326" y2="43.3706">
			<stop  offset="0" style="stop-color:#0003FF"/>
			<stop  offset="1" style="stop-color:#0100A7"/>
		</linearGradient>
		<polygon style="fill:url(#SVGID_00000169520191866147560090000011404638498540011925_);" points="269.6,19.9 247.2,19.9 
			247.2,25.4 255,25.4 255,44.2 261.9,44.2 261.9,25.4 269.6,25.4 		"/>
		
			<linearGradient id="SVGID_00000155836152567745151520000009280203715798786190_" gradientUnits="userSpaceOnUse" x1="282.7205" y1="18.9343" x2="282.7205" y2="43.3706">
			<stop  offset="0" style="stop-color:#0003FF"/>
			<stop  offset="1" style="stop-color:#0100A7"/>
		</linearGradient>
		<path style="fill:url(#SVGID_00000155836152567745151520000009280203715798786190_);" d="M288.5,44.2h7.3l-9.6-24.2h0h-0.6h-5.6
			h-0.6l-9.6,24.2h6.9l1.9-5h8.3L288.5,44.2z M280.3,34.1l2.4-6.4l2.3,6.4H280.3z"/>
		
			<linearGradient id="SVGID_00000075848103513615851830000002225652993854997633_" gradientUnits="userSpaceOnUse" x1="313.8383" y1="18.9343" x2="313.8383" y2="43.3706">
			<stop  offset="0" style="stop-color:#0003FF"/>
			<stop  offset="0.16" style="stop-color:#FFFFFF"/>
			<stop  offset="0.28" style="stop-color:#0117F7"/>
			<stop  offset="1" style="stop-color:#0100A7"/>
		</linearGradient>
		<polygon style="fill:url(#SVGID_00000075848103513615851830000002225652993854997633_);" points="321.8,25.8 321.8,19.9 
			305.8,19.9 305.8,44.2 312.7,44.2 312.7,35 320.5,35 320.5,29.5 312.7,29.5 312.7,25.8 		"/>
		
			<linearGradient id="SVGID_00000084523760468661519070000012843463720403829411_" gradientUnits="userSpaceOnUse" x1="200.4816" y1="18.9343" x2="200.4816" y2="43.3706">
			<stop  offset="0" style="stop-color:#0003FF"/>
			<stop  offset="1" style="stop-color:#0100A7"/>
		</linearGradient>
		<path style="fill:url(#SVGID_00000084523760468661519070000012843463720403829411_);" d="M208.3,21.3v6.1c0,0-4.8-2.5-7.5-2.5
			c-2.7,0-3.3,2.6,0,3.6c3.3,0.9,8.8,2.6,8.8,8.1s-4.8,8.1-9.4,8.1c-4.7,0-7.9-1.9-7.9-1.9v-6.4c0,0,4.6,2.7,7.8,2.8
			c2.9,0,3.8-3,0.9-3.8c-6.5-1.8-9.7-3.8-9.7-8.3c0-3.9,3.9-7.7,9.2-7.7C205.8,19.4,208.3,21.3,208.3,21.3z"/>
		<g>
			
				<linearGradient id="SVGID_00000075884967388750093360000000118649297871148705_" gradientUnits="userSpaceOnUse" x1="332.5376" y1="18.9343" x2="332.5376" y2="43.3706">
				<stop  offset="0" style="stop-color:#0003FF"/>
				<stop  offset="0.16" style="stop-color:#FFFFFF"/>
				<stop  offset="0.28" style="stop-color:#0117F7"/>
				<stop  offset="1" style="stop-color:#0100A7"/>
			</linearGradient>
			<path style="fill:url(#SVGID_00000075884967388750093360000000118649297871148705_);" d="M330.6,37h10.4c0-5.2-1.2-10.2-8.3-10.2
				c-6.7,0-8.5,4.6-8.5,9c0,3.7,3.5,8.4,9.5,8.4c4.8,0,6.5-1.3,6.5-1.3v-4.9c0,0-2.7,1-5.5,1C332.7,39,330.6,37.9,330.6,37z
				 M332.9,31.7c1.3,0,2.3,1,2.3,2h-4.6C330.6,32.7,331.6,31.7,332.9,31.7z"/>
		</g>
		
			<linearGradient id="SVGID_00000029747188101530791300000012275867384381473430_" gradientUnits="userSpaceOnUse" x1="358.9603" y1="18.9343" x2="358.9603" y2="43.3706">
			<stop  offset="0" style="stop-color:#0003FF"/>
			<stop  offset="0.16" style="stop-color:#FFFFFF"/>
			<stop  offset="0.28" style="stop-color:#0117F7"/>
			<stop  offset="1" style="stop-color:#0100A7"/>
		</linearGradient>
		<path style="fill:url(#SVGID_00000029747188101530791300000012275867384381473430_);" d="M351.6,21.3v6.4c0,0,2.9-1.6,4.5-1.9
			c1.6-0.3,2.7-0.2,3.3,0.6s1,2,0.5,2.7s-10,15.1-10,15.1h18.3v-5.5h-6.4c0,0,3.7-6.1,4.6-7.6c1.4-2.4,1-5.3,0.4-6.5
			c-2.2-4.3-5-5.1-8.4-5.1C355.2,19.5,351.6,21.3,351.6,21.3z"/>
		<g>
			
				<linearGradient id="SVGID_00000165948415475219689840000007374623622448641453_" gradientUnits="userSpaceOnUse" x1="380.5561" y1="18.9343" x2="380.5561" y2="43.3706">
				<stop  offset="0" style="stop-color:#0003FF"/>
				<stop  offset="0.16" style="stop-color:#FFFFFF"/>
				<stop  offset="0.28" style="stop-color:#0117F7"/>
				<stop  offset="1" style="stop-color:#0100A7"/>
			</linearGradient>
			<path style="fill:url(#SVGID_00000165948415475219689840000007374623622448641453_);" d="M388.3,30.9c-2.3-2.8-7.1-2.3-7.1-2.3
				l6.1-8.7h-8.1l-6.8,10.2c-1.9,2.8-1.8,8.4-0.1,10.6c1.7,2.1,4.4,3.9,8.2,3.9c3.7,0,6.3-1.6,7.6-2.9
				C390.4,39.3,391.1,34.3,388.3,30.9z M380.7,39c-1.4,0-2.6-1.2-2.6-2.6s1.2-2.6,2.6-2.6s2.6,1.2,2.6,2.6S382.1,39,380.7,39z"/>
		</g>
	</g>
	<g>
		
			<radialGradient id="SVGID_00000029741387124600110860000006833135201995800725_" cx="-1233.325" cy="959.3392" r="44.6624" gradientTransform="matrix(-1 0 0 -1 -1188.9052 1003.4042)" gradientUnits="userSpaceOnUse">
			<stop  offset="0.18" style="stop-color:#FFFFFF"/>
			<stop  offset="0.3" style="stop-color:#4E2EE7"/>
			<stop  offset="0.33" style="stop-color:#1222FF"/>
			<stop  offset="0.44" style="stop-color:#1222FF"/>
			<stop  offset="0.47" style="stop-color:#642AFF"/>
			<stop  offset="0.59" style="stop-color:#FFFFFF"/>
			<stop  offset="0.6" style="stop-color:#FFFFFF"/>
			<stop  offset="0.7304" style="stop-color:#303FFF"/>
			<stop  offset="1" style="stop-color:#01019F"/>
		</radialGradient>
		<path style="fill:url(#SVGID_00000029741387124600110860000006833135201995800725_);" d="M0,44.2C0,19.5,20-0.4,44.6-0.4
			c24.6,0,44.6,20,44.6,44.6L0,44.2z"/>
		
			<radialGradient id="SVGID_00000008857694430680945340000017099192043080155014_" cx="-1233.4998" cy="959.1865" r="7.9379" gradientTransform="matrix(-1 0 0 -1 -1188.9052 1003.4042)" gradientUnits="userSpaceOnUse">
			<stop  offset="0.1658" style="stop-color:#FFFFFF"/>
			<stop  offset="0.5569" style="stop-color:#5415FF"/>
			<stop  offset="0.69" style="stop-color:#1F00FA"/>
			<stop  offset="0.9956" style="stop-color:#01019F"/>
		</radialGradient>
		<path style="fill:url(#SVGID_00000008857694430680945340000017099192043080155014_);" d="M36.7,44.2c0-4.4,3.5-7.9,7.9-7.9
			s7.9,3.5,7.9,7.9"/>
	</g>
</g>
</svg>
