<?xml version="1.0" encoding="utf-8"?>
<!-- Generator: Adobe Illustrator 28.0.0, SVG Export Plug-In . SVG Version: 6.00 Build 0)  -->
<svg version="1.1" id="レイヤー_1" xmlns="http://www.w3.org/2000/svg" xmlns:xlink="http://www.w3.org/1999/xlink" x="0px"
	 y="0px" viewBox="0 0 253.4 45.1" style="enable-background:new 0 0 253.4 45.1;" xml:space="preserve">
<style type="text/css">
	.st0{fill:#FFFFFF;}
</style>
<g>
	<g>
		<polygon class="st0" points="9.2,0.1 3.2,0.1 3.2,21.2 9.2,21.2 9.2,10.8 15.6,21.2 22.7,21.2 15.4,9.8 22.4,0.1 15.2,0.1 
			9.2,9.1 		"/>
		<rect x="23.9" y="0.1" class="st0" width="6" height="21.1"/>
		<polygon class="st0" points="47.9,0.1 47.9,12.1 39.1,0.1 33.6,0.1 33.6,21.2 39.1,21.2 39.1,9 47.9,21.2 53.5,21.2 53.5,0.1 		
			"/>
		<g>
			<path class="st0" d="M67-0.4c-6.1,0-11.1,4.9-11.1,11s5,11,11.1,11s11.1-4.9,11.1-11S73.2-0.4,67-0.4z M67,16.1
				c-2.8,0-5-2.5-5-5.5C62,7.5,64.3,5,67,5s5,2.5,5,5.5C72.1,13.7,69.8,16.1,67,16.1z"/>
		</g>
		<rect x="121.3" y="0.1" class="st0" width="6" height="21.1"/>
		<polygon class="st0" points="112.1,0.1 112.1,8 104.6,8 104.6,0.1 98.6,0.1 98.6,21.2 104.6,21.2 104.6,12.8 112.1,12.8 
			112.1,21.2 118.1,21.2 118.1,0.1 		"/>
		<polygon class="st0" points="148.4,0.1 128.9,0.1 128.9,4.8 135.7,4.8 135.7,21.2 141.7,21.2 141.7,4.8 148.4,4.8 		"/>
		<path class="st0" d="M164.9,21.2h6.3l-8.4-21.1h0h-0.5h-4.9h-0.5l-8.4,21.1h6l1.6-4.4h7.3L164.9,21.2z M157.7,12.4l2.1-5.6l2,5.6
			H157.7z"/>
		<polygon class="st0" points="193.9,5.2 193.9,0.1 180,0.1 180,21.2 186,21.2 186,13.2 192.7,13.2 192.7,8.4 186,8.4 186,5.2 		"/>
		<path class="st0" d="M95,1.3v5.3c0,0-4.2-2.2-6.6-2.2s-2.9,2.3,0,3.1s7.7,2.3,7.7,7.1s-4.2,7-8.2,7C83.9,21.6,81,20,81,20v-5.6
			c0,0,4,2.4,6.8,2.4c2.6,0,3.3-2.6,0.8-3.3c-5.6-1.6-8.4-3.3-8.4-7.2c0-3.4,3.4-6.7,8-6.7S95,1.3,95,1.3z"/>
		<g>
			<path class="st0" d="M201.5,14.9h9c0-4.5-1-8.9-7.2-8.9c-5.9,0-7.4,4-7.4,7.9c0,3.2,3.1,7.3,8.3,7.3c4.2,0,5.7-1.1,5.7-1.1v-4.2
				c0,0-2.4,0.9-4.8,0.8C203.4,16.7,201.5,15.7,201.5,14.9z M203.5,10.3c1.1,0,2,0.9,2,1.7h-4C201.5,11.2,202.4,10.3,203.5,10.3z"/>
		</g>
		<path class="st0" d="M219.8,1.3v5.6c0,0,2.6-1.4,3.9-1.7s2.3-0.1,2.8,0.5s0.8,1.7,0.4,2.4s-8.8,13.1-8.8,13.1h15.9v-4.8h-5.5
			c0,0,3.2-5.3,4-6.6c1.3-2.1,0.9-4.6,0.4-5.7c-1.9-3.8-4.4-4.4-7.3-4.4C223-0.4,219.8,1.3,219.8,1.3z"/>
		<g>
			<path class="st0" d="M251.9,9.7c-2-2.4-6.2-2-6.2-2l5.3-7.6h-7L238,9c-1.7,2.4-1.5,7.4-0.1,9.2c1.4,1.8,3.9,3.4,7.1,3.4
				c3.2,0,5.5-1.4,6.6-2.5C253.7,17,254.3,12.6,251.9,9.7z M245.2,16.7c-1.2,0-2.3-1-2.3-2.3s1-2.3,2.3-2.3s2.3,1,2.3,2.3
				S246.5,16.7,245.2,16.7z"/>
		</g>
	</g>
	<g>
		<polygon class="st0" points="43.1,29.5 48.2,29.5 48.2,28.4 35.1,28.4 35.1,29.5 39.9,29.5 39.9,42.7 33.9,42.7 33.9,43.9 
			49.5,43.9 49.5,42.7 43.1,42.7 		"/>
		<polygon class="st0" points="27.5,29.5 33.9,29.5 33.9,28.4 17.6,28.4 17.6,29.5 23.9,29.5 23.9,44.3 27.5,44.3 27.5,35.8 
			32.3,38.7 32.3,36.8 27.5,33.8 		"/>
		<path class="st0" d="M11,32.1h5.3V31h-6v-3H6.8v3H0.4v1.1h5.7C4.6,39,0,41.9,0,41.9v2c0,0,2-1.4,2.9-2C4.7,40.5,6.8,38,6.8,38v6.3
			h3.6V38c0,0,2,2.6,3.7,4.1c1.8,1.5,3.1,1.8,3.1,1.8v-2C17.1,41.9,12.5,39,11,32.1z"/>
		<polygon class="st0" points="139,43.1 139,32.9 141.6,32.9 141.6,32 139,32 139,27.6 135.7,27.6 135.7,32 134,32 134,32.9 
			135.7,32.9 135.7,43.1 132.9,43.1 132.9,44.3 142,44.3 142,43.1 		"/>
		<path class="st0" d="M133.3,36.7l-2.6-1.5c1.3-1.5,2.5-3.3,3-5.3h-1.2h-1.5h-0.8v-2.3h-3.2V30h-2v1.2h5.6c-1.8,3.6-5.9,6-5.9,6V40
			c0,0,1-0.5,2.4-1.4v5.8h3.2v-6.6l3.2,1.8V36.7z M130.1,35.9L130.1,35.9C130.1,35.9,130.1,35.9,130.1,35.9L130.1,35.9z"/>
		<rect x="110.1" y="33.2" class="st0" width="9.2" height="1.2"/>
		<polygon class="st0" points="118.7,39.9 119.8,43.1 110.7,43.1 114.4,37.1 123.3,37.1 123.3,35.9 106.5,35.9 106.5,37.1 111,37.1 
			106.5,44.3 123.4,44.3 121.7,39.9 		"/>
		<path class="st0" d="M123.3,32.9v-1.5c0,0-3.9-2.3-4.6-3.9h-7.3c-0.9,2.1-5.3,3.9-5.3,3.9v1.5c3,0,7.9-3.5,8.8-4.2
			C115.8,29.3,120.3,32.9,123.3,32.9z"/>
		<polygon class="st0" points="88.6,36.5 90.6,36.5 90.6,41.9 87.6,42.7 87.6,44.7 96.5,42.3 96.5,40.3 93.7,41.1 93.7,36.5 
			96.5,36.5 96.5,35.3 88.6,35.3 		"/>
		<rect x="101.8" y="27.6" class="st0" width="1.8" height="1.5"/>
		<path class="st0" d="M104.5,32v-1.2h-3.6c-0.2-1.9-0.2-3.1-0.2-3.1h-3c0,0,0,1.2,0.1,3.1H87.8V32H98c0.4,3.6,1.3,8.7,3.8,12.4h3.6
			c-2.7-3.7-3.8-8.8-4.3-12.4H104.5z"/>
		<path class="st0" d="M62.9,39.1h3.5V38h-5.8v-1h5.8v-1.2h-5.8v-1.2h5.8v-1.2h-3.6l1.6-2.4h3.4v-1.2h-2.6l1.5-2.2h-2.3l-1.5,2.2
			h-0.7v-2.2h-2v2.2h-1.6v-2.2h-2v2.2h-0.6l-1.5-2.2h-2.3l1.5,2.2h-2.7v1.2h3.5l1.6,2.4h-3.7v1.2h5.8v1.2h-5.8v1.2h5.8v1h-5.8v1.2
			h3.5c-0.2,0.3-1.5,2.5-4.8,3.4v1.8c3.8-0.2,7.2-4.2,7.2-4.2v4.2h2.4v-4.2c0,0,3.4,4,7.2,4.2v-1.8C64.2,41.6,62.9,39.1,62.9,39.1z
			 M60.5,33.4h-2l-1.6-2.4h5.2L60.5,33.4z"/>
		<path class="st0" d="M74.2,28h-3v3.2H69v1.2h2.2c-0.1,0.9-0.6,4.8-2.5,7.8v2.6c1.2-1.2,2-2.2,2.5-3.1v4.7h3v-5.1
			c0.4,0.5,0.8,0.8,1.2,1v-2.3c-0.4-0.4-0.8-1.1-1.2-1.9v-3.6h2v-1.2h-2V28z"/>
		<path class="st0" d="M83.4,31.5h2.8v-1.1h-2.8V28H81v2.4h-1.4c0.2-1.1,0.2-1.6,0.2-1.6h-2.3c0,0,0,1.6-0.9,5.4h2.3
			c0.3-1,0.4-1.9,0.6-2.6H81v4h-3.6v1.2h2.5c0,0-1.4,4.2-2.9,5.6v2c1.3-0.6,4-4.3,4-4.3v4.3h2.3v-4c0,0,1.9,3.4,3.2,4v-2
			c-1.1-1.1-2.6-5.6-2.6-5.6h2.6v-1.2h-3.2V31.5z"/>
	</g>
</g>
</svg>
