<?xml version="1.0" encoding="UTF-8"?><svg id="_レイヤー_1" xmlns="http://www.w3.org/2000/svg" viewBox="0 0 96 96"><defs><style>.cls-1{fill:#202050;stroke-width:0px;}</style></defs><path class="cls-1" d="m48,24C48,10.75,37.25,0,24,0v48c13.25,0,24-10.75,24-24Z"/><path class="cls-1" d="m24,48C10.75,48,0,58.75,0,72h48c0-13.25-10.75-24-24-24Z"/><path class="cls-1" d="m48,72c0,13.25,10.75,24,24,24v-48c-13.25,0-24,10.75-24,24Z"/><path class="cls-1" d="m72,48c13.25,0,24-10.75,24-24h-48c0,13.25,10.75,24,24,24Z"/></svg>