<?xml version="1.0" encoding="UTF-8"?><svg id="_レイヤー_1" xmlns="http://www.w3.org/2000/svg" viewBox="0 0 96 96"><defs><style>.cls-1{fill:#202050;stroke-width:0px;}</style></defs><path class="cls-1" d="m11.33,8.74c-2.01-1.34-3.92.57-2.58,2.58,6.4,9.77,12.38,20.61,15.57,31.6,3.18,11,2.42,19.77-.44,26.54-.57,1.39,1.27,3.23,2.66,2.67,6.78-2.86,15.55-3.62,26.55-.44,10.99,3.18,21.82,9.16,31.58,15.55,2.01,1.34,3.92-.57,2.58-2.58-6.39-9.76-12.37-20.59-15.55-31.58-3.18-11-2.43-19.77.43-26.55.56-1.39-1.27-3.23-2.67-2.66-6.77,2.86-15.55,3.62-26.54.44-11-3.19-21.83-9.17-31.6-15.57Z"/></svg>