<?xml version="1.0" encoding="UTF-8"?><svg id="_レイヤー_1" xmlns="http://www.w3.org/2000/svg" viewBox="0 0 96 96"><defs><style>.cls-1{fill:#202050;stroke-width:0px;}</style></defs><path class="cls-1" d="m48.9,24c0-8.81,3.55-16.09,8.18-17.29C54.72,2.55,51.52,0,48,0s-6.72,2.55-9.08,6.71c4.62,1.21,8.18,8.49,8.18,17.29s-.79,18.91-2.55,19.37c.89,1.58,2.11,2.55,3.45,2.55s2.55-.97,3.45-2.55c-1.76-.46-2.55-10.57-2.55-19.37Z"/><path class="cls-1" d="m27.67,35.22c-7.63-4.4-12.15-11.12-10.89-15.73-4.77-.04-8.59,1.45-10.35,4.51-1.76,3.05-1.15,7.1,1.27,11.22,3.35-3.4,11.44-2.84,19.06,1.57,7.63,4.4,15.98,10.14,15.5,11.89,1.81.01,3.26-.55,3.93-1.71.67-1.16.44-2.7-.48-4.26-1.27,1.29-10.42-3.08-18.05-7.48Z"/><path class="cls-1" d="m26.76,59.22c-7.63,4.4-15.71,4.97-19.06,1.57-2.42,4.12-3.03,8.16-1.27,11.22,1.76,3.05,5.57,4.55,10.35,4.51-1.27-4.6,3.26-11.32,10.89-15.73,7.63-4.4,16.78-8.77,18.05-7.48.92-1.56,1.15-3.1.48-4.26-.67-1.16-2.12-1.73-3.93-1.71.48,1.75-7.88,7.49-15.5,11.89Z"/><path class="cls-1" d="m47.1,72c0,8.81-3.55,16.09-8.18,17.29,2.35,4.15,5.55,6.71,9.08,6.71s6.72-2.55,9.08-6.71c-4.62-1.21-8.18-8.49-8.18-17.29s.79-18.91,2.55-19.37c-.89-1.58-2.11-2.55-3.45-2.55s-2.55.97-3.45,2.55c1.76.46,2.55,10.57,2.55,19.37Z"/><path class="cls-1" d="m68.33,60.78c7.63,4.4,12.15,11.12,10.89,15.73,4.77.04,8.59-1.45,10.35-4.51,1.76-3.05,1.15-7.1-1.27-11.22-3.35,3.4-11.44,2.84-19.06-1.57-7.63-4.4-15.98-10.14-15.5-11.89-1.81-.01-3.26.55-3.93,1.71-.67,1.16-.44,2.7.48,4.26,1.27-1.29,10.42,3.08,18.05,7.48Z"/><path class="cls-1" d="m69.24,36.78c7.63-4.4,15.71-4.97,19.06-1.57,2.42-4.12,3.03-8.16,1.27-11.22-1.76-3.05-5.57-4.55-10.35-4.51,1.27,4.6-3.26,11.32-10.89,15.73-7.63,4.4-16.78,8.77-18.05,7.48-.92,1.56-1.15,3.1-.48,4.26.67,1.16,2.12,1.73,3.93,1.71-.48-1.75,7.88-7.49,15.5-11.89Z"/></svg>