<?xml version="1.0" encoding="utf-8"?>
<!-- Generator: Adobe Illustrator 25.4.1, SVG Export Plug-In . SVG Version: 6.00 Build 0)  -->
<svg version="1.1" id="レイヤー_1" xmlns="http://www.w3.org/2000/svg" xmlns:xlink="http://www.w3.org/1999/xlink" x="0px"
	 y="0px" viewBox="0 0 415 415" style="enable-background:new 0 0 415 415;" xml:space="preserve">
<style type="text/css">
	.st0{fill:#EAEAEA;}
	.st1{opacity:0.1;}
</style>
<rect class="st0" width="415" height="415"/>
<g class="st1">
	<g>
		<g>
			<path d="M250.7,172H182c-3.5,0-6.2,2.8-6.2,6.2V247c0,3.5,2.8,6.2,6.2,6.2h68.8c3.5,0,6.3-2.8,6.3-6.2v-68.8
				C257,174.8,254.2,172,250.7,172z M250.7,247H182v-68.8h68.8V247H250.7z"/>
			<path d="M163.2,159.5H232v6.2h6.2v-6.2c0-3.5-2.8-6.2-6.2-6.2h-68.8c-3.5,0-6.2,2.8-6.2,6.2v68.8c0,3.5,2.8,6.2,6.2,6.2h6.2v-6.2
				h-6.2V159.5z"/>
			<path d="M191.4,231.4h50c1.7,0,3.1-1.4,3.1-3.1c0-0.8-0.3-1.6-0.9-2.2l-12.5-12.5c-1.2-1.2-3.2-1.2-4.4,0l-4.1,4.1l-10.3-10.3
				c-1.2-1.2-3.2-1.2-4.4,0l-18.8,18.8c-1.2,1.2-1.2,3.2,0,4.4C189.8,231.1,190.6,231.4,191.4,231.4z"/>
			<circle cx="232" cy="200.2" r="6.2"/>
		</g>
	</g>
</g>
</svg>
